<?xml version="1.0" standalone="no"?>
<!DOCTYPE svg PUBLIC "-//W3C//DTD SVG 20010904//EN"
 "http://www.w3.org/TR/2001/REC-SVG-20010904/DTD/svg10.dtd">
<svg version="1.0" xmlns="http://www.w3.org/2000/svg"
 width="285.000000pt" height="69.000000pt" viewBox="0 0 285.000000 69.000000"
 preserveAspectRatio="xMidYMid meet">

<g transform="translate(0.000000,69.000000) scale(0.100000,-0.100000)"
fill="#FFF" stroke="none">
<path d="M329 652 c-110 -52 -166 -161 -140 -275 15 -67 81 -147 142 -171 58
-24 148 -19 206 10 178 91 177 339 -3 430 -53 27 -155 30 -205 6z m165 -87
c64 -30 103 -110 84 -167 -25 -76 -81 -118 -153 -118 -130 0 -201 165 -108
252 61 56 109 65 177 33z"/>
<path d="M30 610 c-11 -11 -20 -28 -20 -38 0 -21 39 -62 59 -62 17 0 61 46 61
65 0 21 -36 55 -60 55 -11 0 -29 -9 -40 -20z"/>
<path d="M1001 609 c-26 -28 -26 -37 -2 -66 37 -45 100 -18 96 40 -2 34 -4 35
-42 43 -24 5 -35 1 -52 -17z"/>
<path d="M42 457 c-20 -21 -21 -28 -12 -84 22 -133 100 -243 213 -297 29 -14
66 -29 82 -33 42 -10 186 -10 210 1 11 5 22 10 25 10 19 3 90 41 90 48 0 4 6
8 13 8 10 0 53 43 93 92 12 15 48 87 50 101 1 4 3 8 4 10 4 3 10 37 16 88 5
41 3 47 -20 62 -21 14 -29 15 -46 5 -11 -7 -21 -24 -21 -38 -3 -57 -8 -73 -38
-135 -55 -111 -147 -168 -271 -169 -93 -1 -154 24 -223 92 -50 50 -87 127 -87
186 0 21 -8 40 -23 54 -29 27 -29 27 -55 -1z"/>
<path d="M1232 451 c-57 -42 -75 -81 -70 -148 8 -94 72 -153 167 -153 139 0
212 114 156 244 -23 53 -75 82 -152 85 -51 2 -64 -2 -101 -28z m133 -55 c89
-38 66 -166 -30 -166 -42 0 -95 44 -95 79 0 35 22 69 54 85 38 19 30 19 71 2z"/>
<path d="M1632 463 c-37 -18 -45 -35 -27 -59 12 -17 17 -17 47 -6 67 24 118
11 118 -29 0 -13 -11 -18 -47 -22 -69 -7 -109 -22 -139 -52 -30 -30 -15 -108
24 -128 44 -21 105 -20 134 3 31 24 42 26 34 4 -5 -12 2 -15 37 -12 l42 3 3
95 c5 141 -6 174 -63 206 -29 16 -127 14 -163 -3z m141 -175 c7 -20 -10 -56
-33 -68 -48 -25 -108 9 -84 47 18 29 107 45 117 21z"/>
<path d="M1995 466 c-46 -26 -61 -58 -51 -110 6 -34 42 -62 87 -68 38 -6 61
-23 57 -44 -4 -25 -61 -31 -93 -10 -22 14 -25 14 -39 0 -20 -20 -20 -38 0 -58
22 -22 56 -29 119 -23 40 4 60 11 80 31 14 14 23 26 20 26 -3 0 -1 9 5 19 7
14 6 29 -5 54 -12 29 -24 38 -82 60 -73 27 -90 50 -50 68 18 8 32 7 60 -5 36
-15 38 -14 53 10 9 13 15 26 13 27 -50 36 -133 47 -174 23z"/>
<path d="M2626 450 c-30 -27 -37 -39 -35 -64 5 -51 32 -80 93 -99 62 -20 73
-31 56 -52 -14 -17 -76 -20 -85 -5 -10 16 -41 12 -59 -9 -16 -18 -15 -20 14
-45 27 -22 41 -26 97 -26 61 0 67 2 99 34 63 63 35 129 -68 163 -40 14 -54 23
-56 40 -4 30 35 40 76 19 30 -15 31 -15 51 11 l21 26 -21 15 c-12 8 -49 17
-84 19 -59 5 -64 3 -99 -27z"/>
<path d="M994 457 c-2 -7 -3 -76 -2 -152 l3 -140 43 -3 42 -3 0 155 0 156 -40
0 c-24 0 -43 -5 -46 -13z"/>
<path d="M2230 456 c0 -9 13 -44 29 -78 15 -35 36 -83 46 -108 9 -25 20 -49
25 -55 4 -5 11 -25 15 -43 10 -47 -15 -82 -59 -82 -35 0 -46 -13 -46 -51 0
-10 6 -20 13 -20 107 -11 137 2 170 74 19 41 55 136 62 167 1 3 7 19 14 35 32
77 59 159 55 167 -8 13 -70 9 -82 -4 -5 -7 -22 -52 -36 -100 -15 -49 -30 -88
-35 -88 -8 0 -17 21 -27 60 -2 8 -14 42 -27 75 l-23 60 -47 3 c-37 2 -47 0
-47 -12z"/>
</g>
</svg>
